<svg xmlns="http://www.w3.org/2000/svg" aria-hidden="true" style="position:absolute;width:0;height:0;overflow:hidden">
  <defs>
    <symbol id="icon-budget" viewBox="0 0 32 32">
      <path fill="none" stroke="#126fff" stroke-linecap="round" stroke-linejoin="round" stroke-width="2" d="M8.92 18.027a2.347 2.347 0 0 0 2.027 1.054m0-.001a2.082 2.082 0 0 0 2.253-1.867 2.077 2.077 0 0 0-2.254-1.88 2.08 2.08 0 0 1-2.24-1.88 2.081 2.081 0 0 1 2.24-1.867m.001 7.494v1.253m0-8.746a2.31 2.31 0 0 1 2.027 1.053m-2.027-1.053v-1.253m7.72 9.999v-4m4.666 4v-8M2 1h28s1 0 1 1v3.333s0 1-1 1H2s-1 0-1-1V2s0-1 1-1z" style="stroke:var(--color1, #126fff)"/>
      <path fill="none" stroke="#126fff" stroke-linecap="round" stroke-linejoin="round" stroke-width="2" d="M16 29.667V24m0 5.667c1.107 0 2 .6 2 1.333m-2-1.333c-1.107 0-2 .6-2 1.333M1 24h30M3 6.333h26V24H3V6.333z" style="stroke:var(--color1, #126fff)"/>
    </symbol>
    <symbol id="icon-close" viewBox="0 0 33 32">
      <path stroke-linecap="round" stroke-width="2.909" d="M30.833 30.105 2.622 1.894M2.622 30.105 30.833 1.894"/>
    </symbol>
    <symbol id="icon-communication" viewBox="0 0 32 32">
      <path fill="#126fff" d="M4.667 17.333A11.33 11.33 0 0 1 15.027 6.03a11.33 11.33 0 0 1 12.141 9.363 4.666 4.666 0 0 1 2.107 3.198c.039-.415.059-.835.059-1.259 0-7.364-5.969-13.333-13.333-13.333S2.668 9.968 2.668 17.332a13.29 13.29 0 0 0 3.898 9.42 1.002 1.002 0 0 0 1.402-.012.997.997 0 0 0 .013-1.402 11.287 11.287 0 0 1-3.312-8.007zm19.586-2.648a8.67 8.67 0 0 0-9.083-5.974 8.66 8.66 0 0 0-6.461 3.945 8.663 8.663 0 0 0 1.165 10.808.991.991 0 0 0 .708.293 1.01 1.01 0 0 0 .708-.293.991.991 0 0 0 .293-.708 1.006 1.006 0 0 0-.293-.708 6.662 6.662 0 0 1-1.906-5.5 6.669 6.669 0 0 1 3.14-4.9 6.669 6.669 0 0 1 9.823 3.635 4.667 4.667 0 0 1 1.909-.6zm-11.587 2.648a3.333 3.333 0 1 1 6.667 0 3.333 3.333 0 0 1-6.667 0zM16 16a1.333 1.333 0 1 0-.002 2.665A1.333 1.333 0 0 0 16 16zm12 3.333a3.333 3.333 0 1 1-6.667 0 3.333 3.333 0 0 1 6.667 0zm2.666 7.167c0 2.075-1.715 4.167-6 4.167s-6-2.084-6-4.167v-.137A2.363 2.363 0 0 1 21.03 24h7.272a2.362 2.362 0 0 1 2.364 2.363v.137z" style="fill:var(--color1, #126fff)"/>
    </symbol>
    <symbol id="icon-event" viewBox="0 0 32 32">
      <path fill="#126fff" d="M28 6a2 2 0 0 0-2-2h-4V3a1 1 0 0 0-2 0v1h-8V3a1 1 0 0 0-2 0v1H6a2 2 0 0 0-2 2v20a2 2 0 0 0 2 2h3a1 1 0 0 0 0-2H6V6h4v1a1 1 0 0 0 2 0V6h8v1a1 1 0 0 0 2 0V6h4v5a1 1 0 0 0 2 0V6z" style="fill:var(--color1, #126fff)"/>
      <path fill="#126fff" d="m21 15 2.549 4.938 5.451.791-4 3.844L26 30l-5-2.562L16 30l1-5.427-4-3.844 5.6-.791L21 15z" style="fill:var(--color1, #126fff)"/>
    </symbol>
    <symbol id="icon-launch" viewBox="0 0 32 32">
      <path fill="none" stroke="#126fff" stroke-linecap="round" stroke-linejoin="round" stroke-width="2" d="M20.419 18.917A7.384 7.384 0 0 1 13.231 28v-5.908m7.188-3.175A18.432 18.432 0 0 0 28.001 4a18.443 18.443 0 0 0-14.915 7.581m7.333 7.336a18.32 18.32 0 0 1-7.188 3.175m0 0c-.127.026-.255.051-.383.074a18.508 18.508 0 0 1-3.013-3.013l.073-.384m3.176-7.187a7.387 7.387 0 0 0-8.347 3.97A7.392 7.392 0 0 0 4 18.77h5.908m3.176-7.188a18.352 18.352 0 0 0-3.177 7.188m-2.755 2.941a5.527 5.527 0 0 0-2.163 5.3 5.546 5.546 0 0 0 3.343-.522 5.519 5.519 0 0 0 1.957-1.642m11.249-12.539a1.845 1.845 0 1 1-3.69 0 1.845 1.845 0 0 1 3.69 0z" style="stroke:var(--color1, #126fff)"/>
    </symbol>
    <symbol id="icon-left-arrow" viewBox="0 0 17 32">
      <path fill="none" stroke="#efefef" stroke-linecap="round" stroke-width="1.28" d="M15.36 1.28 1.28 16l14.08 14.72" style="stroke:var(--color2, #efefef)"/>
    </symbol>
    <symbol id="icon-logo" viewBox="0 0 170 32">
      <path fill="#126fff" d="m15.158 1.684 4.59 9.553 10.568 1.383-7.731 7.287 1.941 10.408-9.368-5.049-9.368 5.049 1.941-10.408L0 12.62l10.568-1.383 4.59-9.553zM37.053 29.862V3.369H54.52V8.1H42.454v6.018h10.409v4.617H42.454v6.396h12.223v4.731H37.052zM66.068 29.862l7.492-18.924h5.363L70.84 29.862h-4.771zm-.434 0-8.083-18.924h5.362l7.492 18.924h-4.771zM89.727 30.316c-1.945 0-3.667-.416-5.165-1.249a9.508 9.508 0 0 1-3.549-3.52c-.841-1.489-1.262-3.204-1.262-5.147s.434-3.659 1.301-5.147a9.431 9.431 0 0 1 3.628-3.482c1.551-.858 3.325-1.287 5.323-1.287 1.735 0 3.325.442 4.771 1.325 1.472.858 2.642 2.132 3.509 3.823.894 1.665 1.341 3.696 1.341 6.093H84.68l.473-.454c0 .934.237 1.754.71 2.46.5.681 1.13 1.211 1.893 1.59.789.353 1.63.53 2.523.53 1.078 0 1.958-.214 2.642-.643a4.636 4.636 0 0 0 1.577-1.741l4.653 1.741a9.416 9.416 0 0 1-2.169 2.763c-.867.757-1.906 1.337-3.115 1.741s-2.589.606-4.14.606zM85.429 18.47l-.473-.454h9.503l-.434.454c0-.908-.224-1.627-.67-2.157a3.876 3.876 0 0 0-1.656-1.211c-.631-.252-1.249-.378-1.853-.378s-1.249.126-1.932.378-1.275.656-1.774 1.211c-.473.53-.71 1.249-.71 2.157zM102.649 29.862V10.938h4.889l.315 3.482v15.442h-5.205zm13.051 0v-9.689h5.205v9.689H115.7zm0-9.689c0-1.287-.158-2.283-.473-2.99-.289-.706-.71-1.211-1.262-1.514-.552-.328-1.196-.492-1.932-.492-1.341-.025-2.379.366-3.115 1.173-.71.807-1.065 2.006-1.065 3.596h-1.735c0-2.019.302-3.722.907-5.109.631-1.413 1.498-2.485 2.602-3.217 1.13-.757 2.445-1.135 3.943-1.135 1.551 0 2.878.303 3.982.908s1.945 1.552 2.523 2.839c.578 1.262.854 2.902.828 4.92v1.022h-5.205zM133.182 30.316c-2.182 0-3.838-.517-4.968-1.552-1.104-1.035-1.656-2.511-1.656-4.428V5.034h5.205v18.205c0 .807.184 1.426.552 1.854.368.404.907.605 1.617.605.263 0 .552-.05.868-.151.315-.126.644-.303.986-.53l1.814 3.747a8.38 8.38 0 0 1-2.129 1.097 6.151 6.151 0 0 1-2.287.454zm-9.818-15.139v-4.239h13.327v4.239h-13.327zM140.923 29.862V3.369h5.205v26.493h-5.205zM159.893 30.316c-1.998 0-3.785-.416-5.362-1.249-1.551-.858-2.773-2.031-3.667-3.52-.867-1.489-1.301-3.204-1.301-5.147s.434-3.659 1.301-5.147 2.077-2.649 3.627-3.482c1.551-.858 3.325-1.287 5.323-1.287 2.024 0 3.812.429 5.363 1.287 1.551.833 2.76 1.993 3.627 3.482s1.302 3.204 1.302 5.147-.435 3.658-1.302 5.147-2.076 2.662-3.627 3.52c-1.525.833-3.286 1.249-5.284 1.249zm0-4.618c.973 0 1.827-.227 2.563-.681s1.301-1.072 1.696-1.854c.421-.807.631-1.728.631-2.763s-.21-1.943-.631-2.725a4.666 4.666 0 0 0-1.774-1.892c-.736-.454-1.59-.681-2.563-.681-.946 0-1.801.227-2.563.681a4.754 4.754 0 0 0-1.735 1.892c-.421.782-.631 1.69-.631 2.725s.21 1.955.631 2.763c.421.782 1.012 1.4 1.774 1.854s1.63.681 2.602.681z" style="fill:var(--color1, #126fff)"/>
    </symbol>
    <symbol id="icon-menu" viewBox="0 0 32 32">
      <path stroke-linecap="round" stroke-width="1.454" d="M24.727 21.818H7.272M24.727 16H7.272M24.727 10.182H7.272"/>
    </symbol>
    <symbol id="icon-remote" viewBox="0 0 32 32">
      <path fill="#126fff" d="M27.152 24.048a1.2 1.2 0 1 0 1.696-1.696L20.096 13.6l8.752-8.752a1.2 1.2 0 0 0-1.695-1.695l-9.6 9.6a1.199 1.199 0 0 0 0 1.696l9.6 9.6zM4.848 7.952a1.2 1.2 0 0 0-1.695 1.695l8.752 8.752-8.752 8.752a1.2 1.2 0 1 0 1.696 1.696l9.6-9.6a1.199 1.199 0 0 0 0-1.696l-9.6-9.6z" style="fill:var(--color1, #126fff)"/>
    </symbol>
    <symbol id="icon-right-arrow" viewBox="0 0 17 32">
      <path fill="none" stroke="#efefef" stroke-linecap="round" stroke-width="1.28" d="M1.28 1.28 15.36 16 1.28 30.72" style="stroke:var(--color2, #efefef)"/>
    </symbol>
    <symbol id="icon-setup" viewBox="0 0 32 32">
      <path fill="#126fff" d="M16.064 20.014c-2.21 0-4-1.8-4-4 0-2.21 1.8-4 4-4 2.21 0 4 1.8 4 4 0 2.21-1.8 4-4 4zm0-2a2 2 0 1 0-.001-4.001 2 2 0 0 0 .001 4.001z" style="fill:var(--color1, #126fff)"/>
      <path fill="#126fff" d="M16.464 4.014h-.948c-1.58 0-2.9 1.15-3.14 2.66-.142.055-.283.113-.422.174a3.18 3.18 0 0 0-4.1.346l-.674.674a3.183 3.183 0 0 0-.346 4.1c-.061.14-.119.281-.174.422A3.193 3.193 0 0 0 4 15.53v.948a3.21 3.21 0 0 0 2.66 3.16c.053.139.11.276.17.412a3.194 3.194 0 0 0 .342 4.12l.66.66a3.21 3.21 0 0 0 4.14.336c.131.06.263.115.396.166a3.2 3.2 0 0 0 3.16 2.68h.916c1.6 0 2.92-1.168 3.18-2.7.131-.052.26-.106.388-.162a3.227 3.227 0 0 0 4.16-.334l.642-.642a3.226 3.226 0 0 0 .334-4.16c.057-.129.111-.259.162-.388a3.219 3.219 0 0 0 2.7-3.18v-.916a3.195 3.195 0 0 0-2.68-3.16 11.57 11.57 0 0 0-.164-.4c.9-1.25.788-3-.34-4.14l-.656-.656a3.202 3.202 0 0 0-4.12-.342 9.929 9.929 0 0 0-.412-.172A3.19 3.19 0 0 0 16.478 4l-.014.014zm-2.14 3.2c0-.658.532-1.19 1.19-1.19h.948c.66 0 1.196.536 1.196 1.196 0 .564.398 1.042.932 1.226.315.108.62.235.916.382.508.25 1.132.194 1.532-.206a1.2 1.2 0 0 1 1.694 0l.658.658a1.205 1.205 0 0 1 0 1.704c-.402.402-.46 1.026-.212 1.536.14.289.263.587.368.894.186.54.668.944 1.238.944.666 0 1.206.54 1.206 1.206v.916a1.212 1.212 0 0 1-1.212 1.212c-.572 0-1.056.404-1.244.942a7.76 7.76 0 0 1-.364.878c-.25.514-.194 1.144.212 1.548a1.2 1.2 0 0 1 .356.857c0 .159-.031.317-.093.464s-.151.281-.263.393l-.642.642a1.2 1.2 0 0 1-.857.356 1.217 1.217 0 0 1-.857-.356c-.404-.404-1.034-.462-1.548-.212a7.76 7.76 0 0 1-.878.364c-.54.188-.944.672-.944 1.244a1.212 1.212 0 0 1-1.212 1.212h-.916a1.206 1.206 0 0 1-1.206-1.206c0-.57-.404-1.054-.944-1.238a7.996 7.996 0 0 1-.894-.368c-.51-.248-1.134-.19-1.536.21a1.205 1.205 0 0 1-1.704 0l-.658-.658a1.2 1.2 0 0 1 0-1.694c.4-.4.456-1.024.206-1.532a7.97 7.97 0 0 1-.382-.916c-.184-.534-.662-.932-1.226-.932a1.202 1.202 0 0 1-1.196-1.196v-.948c0-.658.532-1.19 1.19-1.19.564 0 1.04-.398 1.222-.932.109-.319.238-.63.386-.932.248-.504.192-1.122-.206-1.52a1.19 1.19 0 0 1 0-1.684l.674-.674a1.19 1.19 0 0 1 1.684 0c.398.398 1.016.454 1.52.206.3-.147.611-.275.932-.386.534-.18.932-.658.932-1.222l.002.002z" style="fill:var(--color1, #126fff)"/>
    </symbol>
    <symbol id="icon-connector" viewBox="0 0 343 10">
      <circle cx="4.76389" cy="4.76389" r="4.26389" stroke="#EFEFEF" />
      <path d="M9.52783 4.76392H343" stroke="#EFEFEF" />
    </symbol>
  </defs>
</svg>
